<mxfile host="app.diagrams.net" modified="2020-12-17T02:28:39.993Z" agent="5.0 (Macintosh; Intel Mac OS X 10_15_7) AppleWebKit/537.36 (KHTML, like Gecko) Chrome/87.0.4280.88 Safari/537.36" etag="ws55A6bts9B2wnp3puxL" version="13.8.0" type="github">
  <diagram id="kgpKYQtTHZ0yAKxKKP6v" name="Page-1">
    <mxGraphModel dx="895" dy="597" grid="1" gridSize="10" guides="1" tooltips="1" connect="1" arrows="1" fold="1" page="1" pageScale="1" pageWidth="850" pageHeight="1100" math="0" shadow="0">
      <root>
        <mxCell id="0" />
        <mxCell id="1" parent="0" />
        <mxCell id="9fjHtVMWSoBI9fXJI2gE-4" value="" style="shape=umlLifeline;participant=umlActor;perimeter=lifelinePerimeter;whiteSpace=wrap;html=1;container=1;collapsible=0;recursiveResize=0;verticalAlign=top;spacingTop=36;outlineConnect=0;" vertex="1" parent="1">
          <mxGeometry x="150" y="740" width="20" height="300" as="geometry" />
        </mxCell>
        <mxCell id="9fjHtVMWSoBI9fXJI2gE-5" value="商户" style="text;html=1;align=center;verticalAlign=middle;resizable=0;points=[];autosize=1;" vertex="1" parent="1">
          <mxGeometry x="140" y="710" width="40" height="20" as="geometry" />
        </mxCell>
        <mxCell id="9fjHtVMWSoBI9fXJI2gE-6" value="spapiv3logicsvr" style="shape=umlLifeline;perimeter=lifelinePerimeter;whiteSpace=wrap;html=1;container=1;collapsible=0;recursiveResize=0;outlineConnect=0;" vertex="1" parent="1">
          <mxGeometry x="260" y="740" width="100" height="300" as="geometry" />
        </mxCell>
        <mxCell id="9fjHtVMWSoBI9fXJI2gE-7" value="" style="html=1;points=[];perimeter=orthogonalPerimeter;" vertex="1" parent="9fjHtVMWSoBI9fXJI2gE-6">
          <mxGeometry x="45" y="80" width="10" height="80" as="geometry" />
        </mxCell>
        <mxCell id="9fjHtVMWSoBI9fXJI2gE-8" value="&lt;font style=&quot;font-size: 11px&quot;&gt;CreateServiceOrder&lt;/font&gt;" style="html=1;verticalAlign=bottom;startArrow=oval;endArrow=block;startSize=8;" edge="1" target="9fjHtVMWSoBI9fXJI2gE-7" parent="1" source="9fjHtVMWSoBI9fXJI2gE-4">
          <mxGeometry relative="1" as="geometry">
            <mxPoint x="195" y="820" as="sourcePoint" />
            <Array as="points">
              <mxPoint x="200" y="830" />
            </Array>
          </mxGeometry>
        </mxCell>
      </root>
    </mxGraphModel>
  </diagram>
</mxfile>
